<svg xmlns="http://www.w3.org/2000/svg" xmlns:xlink="http://www.w3.org/1999/xlink" width="500" zoomAndPan="magnify" viewBox="0 0 375 374.999991" height="500" preserveAspectRatio="xMidYMid meet" version="1.0"><defs><g/><clipPath id="35a56c8148"><path d="M 0 167.921875 L 375 167.921875 L 375 219.777344 L 0 219.777344 Z M 0 167.921875 " clip-rule="nonzero"/></clipPath></defs><path stroke-linecap="butt" transform="matrix(0.00368323, -1.518219, 1.518219, 0.00368323, 186.738141, 343.945905)" fill="none" stroke-linejoin="miter" d="M -0.000971742 0.49924 L 206.09726 0.50096 " stroke="#ffffff" stroke-width="1" stroke-opacity="1" stroke-miterlimit="4"/><g fill="#ffffff" fill-opacity="1"><g transform="translate(6.154868, 282.378003)"><g><path d="M 11.1875 -141.703125 C 11.1875 -150.398438 13.765625 -158.414062 18.921875 -165.75 C 24.078125 -173.082031 31.628906 -178.988281 41.578125 -183.46875 C 51.523438 -187.945312 63.644531 -190.1875 77.9375 -190.1875 C 89.375 -190.1875 99.285156 -189.375 107.671875 -187.75 C 116.066406 -186.132812 123.867188 -184.085938 131.078125 -181.609375 L 131.078125 -156.625 L 129.21875 -156.625 C 129.21875 -156.625 128.71875 -157.675781 127.71875 -159.78125 C 126.726562 -161.894531 125.050781 -164.503906 122.6875 -167.609375 C 120.320312 -170.722656 117.179688 -173.832031 113.265625 -176.9375 C 109.347656 -180.050781 104.46875 -182.660156 98.625 -184.765625 C 92.789062 -186.878906 85.894531 -187.9375 77.9375 -187.9375 C 66.375 -187.9375 56.582031 -185.882812 48.5625 -181.78125 C 40.550781 -177.6875 34.492188 -172.46875 30.390625 -166.125 C 26.285156 -159.789062 24.234375 -153.140625 24.234375 -146.171875 C 24.234375 -139.835938 25.878906 -134.429688 29.171875 -129.953125 C 32.472656 -125.484375 36.953125 -121.628906 42.609375 -118.390625 C 48.265625 -115.160156 54.570312 -112.300781 61.53125 -109.8125 C 68.488281 -107.332031 75.695312 -104.847656 83.15625 -102.359375 C 90.613281 -99.878906 97.820312 -97.175781 104.78125 -94.25 C 111.75 -91.332031 118.054688 -87.820312 123.703125 -83.71875 C 129.359375 -79.613281 133.832031 -74.671875 137.125 -68.890625 C 140.425781 -63.109375 142.078125 -56.117188 142.078125 -47.921875 C 142.078125 -41.453125 140.457031 -35.140625 137.21875 -28.984375 C 133.988281 -22.835938 129.328125 -17.304688 123.234375 -12.390625 C 117.148438 -7.484375 109.816406 -3.566406 101.234375 -0.640625 C 92.660156 2.273438 82.96875 3.734375 72.15625 3.734375 C 63.945312 3.734375 56.113281 2.550781 48.65625 0.1875 C 41.207031 -2.175781 34.375 -5.128906 28.15625 -8.671875 C 21.9375 -12.210938 16.53125 -15.660156 11.9375 -19.015625 L 11.9375 -44 L 13.796875 -44 C 13.796875 -44 14.757812 -42.503906 16.6875 -39.515625 C 18.613281 -36.535156 21.472656 -32.835938 25.265625 -28.421875 C 29.054688 -24.015625 33.71875 -19.601562 39.25 -15.1875 C 44.78125 -10.78125 51.179688 -7.082031 58.453125 -4.09375 C 65.722656 -1.113281 73.769531 0.375 82.59375 0.375 C 89.4375 0.375 95.804688 -0.742188 101.703125 -2.984375 C 107.609375 -5.222656 112.769531 -8.269531 117.1875 -12.125 C 121.601562 -15.976562 125.050781 -20.328125 127.53125 -25.171875 C 130.019531 -30.015625 131.265625 -35.050781 131.265625 -40.28125 C 131.265625 -47.238281 129.582031 -53.234375 126.21875 -58.265625 C 122.863281 -63.296875 118.328125 -67.613281 112.609375 -71.21875 C 106.898438 -74.820312 100.46875 -78.050781 93.3125 -80.90625 C 86.164062 -83.769531 78.800781 -86.507812 71.21875 -89.125 C 63.632812 -91.738281 56.269531 -94.535156 49.125 -97.515625 C 41.976562 -100.492188 35.546875 -103.941406 29.828125 -107.859375 C 24.109375 -111.773438 19.570312 -116.5 16.21875 -122.03125 C 12.863281 -127.5625 11.1875 -134.117188 11.1875 -141.703125 Z M 11.1875 -141.703125 "/></g></g></g><g fill="#ffffff" fill-opacity="1"><g transform="translate(214.034883, 282.378003)"><g><path d="M 11.1875 -141.703125 C 11.1875 -150.398438 13.765625 -158.414062 18.921875 -165.75 C 24.078125 -173.082031 31.628906 -178.988281 41.578125 -183.46875 C 51.523438 -187.945312 63.644531 -190.1875 77.9375 -190.1875 C 89.375 -190.1875 99.285156 -189.375 107.671875 -187.75 C 116.066406 -186.132812 123.867188 -184.085938 131.078125 -181.609375 L 131.078125 -156.625 L 129.21875 -156.625 C 129.21875 -156.625 128.71875 -157.675781 127.71875 -159.78125 C 126.726562 -161.894531 125.050781 -164.503906 122.6875 -167.609375 C 120.320312 -170.722656 117.179688 -173.832031 113.265625 -176.9375 C 109.347656 -180.050781 104.46875 -182.660156 98.625 -184.765625 C 92.789062 -186.878906 85.894531 -187.9375 77.9375 -187.9375 C 66.375 -187.9375 56.582031 -185.882812 48.5625 -181.78125 C 40.550781 -177.6875 34.492188 -172.46875 30.390625 -166.125 C 26.285156 -159.789062 24.234375 -153.140625 24.234375 -146.171875 C 24.234375 -139.835938 25.878906 -134.429688 29.171875 -129.953125 C 32.472656 -125.484375 36.953125 -121.628906 42.609375 -118.390625 C 48.265625 -115.160156 54.570312 -112.300781 61.53125 -109.8125 C 68.488281 -107.332031 75.695312 -104.847656 83.15625 -102.359375 C 90.613281 -99.878906 97.820312 -97.175781 104.78125 -94.25 C 111.75 -91.332031 118.054688 -87.820312 123.703125 -83.71875 C 129.359375 -79.613281 133.832031 -74.671875 137.125 -68.890625 C 140.425781 -63.109375 142.078125 -56.117188 142.078125 -47.921875 C 142.078125 -41.453125 140.457031 -35.140625 137.21875 -28.984375 C 133.988281 -22.835938 129.328125 -17.304688 123.234375 -12.390625 C 117.148438 -7.484375 109.816406 -3.566406 101.234375 -0.640625 C 92.660156 2.273438 82.96875 3.734375 72.15625 3.734375 C 63.945312 3.734375 56.113281 2.550781 48.65625 0.1875 C 41.207031 -2.175781 34.375 -5.128906 28.15625 -8.671875 C 21.9375 -12.210938 16.53125 -15.660156 11.9375 -19.015625 L 11.9375 -44 L 13.796875 -44 C 13.796875 -44 14.757812 -42.503906 16.6875 -39.515625 C 18.613281 -36.535156 21.472656 -32.835938 25.265625 -28.421875 C 29.054688 -24.015625 33.71875 -19.601562 39.25 -15.1875 C 44.78125 -10.78125 51.179688 -7.082031 58.453125 -4.09375 C 65.722656 -1.113281 73.769531 0.375 82.59375 0.375 C 89.4375 0.375 95.804688 -0.742188 101.703125 -2.984375 C 107.609375 -5.222656 112.769531 -8.269531 117.1875 -12.125 C 121.601562 -15.976562 125.050781 -20.328125 127.53125 -25.171875 C 130.019531 -30.015625 131.265625 -35.050781 131.265625 -40.28125 C 131.265625 -47.238281 129.582031 -53.234375 126.21875 -58.265625 C 122.863281 -63.296875 118.328125 -67.613281 112.609375 -71.21875 C 106.898438 -74.820312 100.46875 -78.050781 93.3125 -80.90625 C 86.164062 -83.769531 78.800781 -86.507812 71.21875 -89.125 C 63.632812 -91.738281 56.269531 -94.535156 49.125 -97.515625 C 41.976562 -100.492188 35.546875 -103.941406 29.828125 -107.859375 C 24.109375 -111.773438 19.570312 -116.5 16.21875 -122.03125 C 12.863281 -127.5625 11.1875 -134.117188 11.1875 -141.703125 Z M 11.1875 -141.703125 "/></g></g></g><g clip-path="url(#35a56c8148)"><path fill="#ffffff" d="M -33.601562 167.921875 L 411.625 167.921875 L 411.625 219.777344 L -33.601562 219.777344 Z M -33.601562 167.921875 " fill-opacity="1" fill-rule="nonzero"/></g><g fill="#2d2928" fill-opacity="1"><g transform="translate(9.082315, 209.008153)"><g><path d="M 9.03125 0.171875 C 7.5 0.171875 6.03125 -0.0703125 4.625 -0.5625 C 3.226562 -1.050781 2.144531 -1.695312 1.375 -2.5 L 2.234375 -4.171875 C 2.984375 -3.429688 3.972656 -2.828125 5.203125 -2.359375 C 6.441406 -1.898438 7.71875 -1.671875 9.03125 -1.671875 C 10.875 -1.671875 12.253906 -2.007812 13.171875 -2.6875 C 14.097656 -3.363281 14.5625 -4.242188 14.5625 -5.328125 C 14.5625 -6.148438 14.3125 -6.804688 13.8125 -7.296875 C 13.3125 -7.785156 12.695312 -8.160156 11.96875 -8.421875 C 11.238281 -8.691406 10.226562 -8.984375 8.9375 -9.296875 C 7.382812 -9.679688 6.148438 -10.054688 5.234375 -10.421875 C 4.316406 -10.785156 3.523438 -11.335938 2.859375 -12.078125 C 2.203125 -12.828125 1.875 -13.835938 1.875 -15.109375 C 1.875 -16.148438 2.148438 -17.097656 2.703125 -17.953125 C 3.253906 -18.804688 4.097656 -19.488281 5.234375 -20 C 6.367188 -20.507812 7.78125 -20.765625 9.46875 -20.765625 C 10.644531 -20.765625 11.796875 -20.601562 12.921875 -20.28125 C 14.046875 -19.957031 15.019531 -19.507812 15.84375 -18.9375 L 15.109375 -17.203125 C 14.253906 -17.773438 13.332031 -18.203125 12.34375 -18.484375 C 11.363281 -18.765625 10.40625 -18.90625 9.46875 -18.90625 C 7.664062 -18.90625 6.304688 -18.554688 5.390625 -17.859375 C 4.484375 -17.171875 4.03125 -16.273438 4.03125 -15.171875 C 4.03125 -14.347656 4.28125 -13.6875 4.78125 -13.1875 C 5.28125 -12.6875 5.90625 -12.300781 6.65625 -12.03125 C 7.414062 -11.769531 8.429688 -11.484375 9.703125 -11.171875 C 11.210938 -10.796875 12.429688 -10.425781 13.359375 -10.0625 C 14.296875 -9.707031 15.085938 -9.160156 15.734375 -8.421875 C 16.378906 -7.691406 16.703125 -6.695312 16.703125 -5.4375 C 16.703125 -4.394531 16.421875 -3.445312 15.859375 -2.59375 C 15.304688 -1.75 14.453125 -1.078125 13.296875 -0.578125 C 12.140625 -0.078125 10.71875 0.171875 9.03125 0.171875 Z M 9.03125 0.171875 "/></g></g></g><g fill="#2d2928" fill-opacity="1"><g transform="translate(36.540274, 209.008153)"><g><path d="M 7.359375 -18.703125 L 0.125 -18.703125 L 0.125 -20.578125 L 16.765625 -20.578125 L 16.765625 -18.703125 L 9.53125 -18.703125 L 9.53125 0 L 7.359375 0 Z M 7.359375 -18.703125 "/></g></g></g><g fill="#2d2928" fill-opacity="1"><g transform="translate(62.79317, 209.008153)"><g><path d="M 17.90625 -1.875 L 17.90625 0 L 3.359375 0 L 3.359375 -20.578125 L 17.46875 -20.578125 L 17.46875 -18.703125 L 5.53125 -18.703125 L 5.53125 -11.375 L 16.171875 -11.375 L 16.171875 -9.53125 L 5.53125 -9.53125 L 5.53125 -1.875 Z M 17.90625 -1.875 "/></g></g></g><g fill="#2d2928" fill-opacity="1"><g transform="translate(91.838273, 209.008153)"><g><path d="M 5.53125 -18.703125 L 5.53125 -10.609375 L 16.171875 -10.609375 L 16.171875 -8.734375 L 5.53125 -8.734375 L 5.53125 0 L 3.359375 0 L 3.359375 -20.578125 L 17.46875 -20.578125 L 17.46875 -18.703125 Z M 5.53125 -18.703125 "/></g></g></g><g fill="#2d2928" fill-opacity="1"><g transform="translate(119.82528, 209.008153)"><g><path d="M 16.265625 -5.5 L 4.796875 -5.5 L 2.328125 0 L 0.0625 0 L 9.46875 -20.578125 L 11.609375 -20.578125 L 21.03125 0 L 18.734375 0 Z M 15.46875 -7.265625 L 10.53125 -18.3125 L 5.59375 -7.265625 Z M 15.46875 -7.265625 "/></g></g></g><g fill="#2d2928" fill-opacity="1"><g transform="translate(150.281207, 209.008153)"><g><path d="M 20.5625 -20.578125 L 20.5625 0 L 18.765625 0 L 5.53125 -16.703125 L 5.53125 0 L 3.359375 0 L 3.359375 -20.578125 L 5.140625 -20.578125 L 18.40625 -3.875 L 18.40625 -20.578125 Z M 20.5625 -20.578125 "/></g></g></g><g fill="#2d2928" fill-opacity="1"><g transform="translate(183.558739, 209.008153)"><g/></g></g><g fill="#2d2928" fill-opacity="1"><g transform="translate(200.641364, 209.008153)"><g><path d="M 9.03125 0.171875 C 7.5 0.171875 6.03125 -0.0703125 4.625 -0.5625 C 3.226562 -1.050781 2.144531 -1.695312 1.375 -2.5 L 2.234375 -4.171875 C 2.984375 -3.429688 3.972656 -2.828125 5.203125 -2.359375 C 6.441406 -1.898438 7.71875 -1.671875 9.03125 -1.671875 C 10.875 -1.671875 12.253906 -2.007812 13.171875 -2.6875 C 14.097656 -3.363281 14.5625 -4.242188 14.5625 -5.328125 C 14.5625 -6.148438 14.3125 -6.804688 13.8125 -7.296875 C 13.3125 -7.785156 12.695312 -8.160156 11.96875 -8.421875 C 11.238281 -8.691406 10.226562 -8.984375 8.9375 -9.296875 C 7.382812 -9.679688 6.148438 -10.054688 5.234375 -10.421875 C 4.316406 -10.785156 3.523438 -11.335938 2.859375 -12.078125 C 2.203125 -12.828125 1.875 -13.835938 1.875 -15.109375 C 1.875 -16.148438 2.148438 -17.097656 2.703125 -17.953125 C 3.253906 -18.804688 4.097656 -19.488281 5.234375 -20 C 6.367188 -20.507812 7.78125 -20.765625 9.46875 -20.765625 C 10.644531 -20.765625 11.796875 -20.601562 12.921875 -20.28125 C 14.046875 -19.957031 15.019531 -19.507812 15.84375 -18.9375 L 15.109375 -17.203125 C 14.253906 -17.773438 13.332031 -18.203125 12.34375 -18.484375 C 11.363281 -18.765625 10.40625 -18.90625 9.46875 -18.90625 C 7.664062 -18.90625 6.304688 -18.554688 5.390625 -17.859375 C 4.484375 -17.171875 4.03125 -16.273438 4.03125 -15.171875 C 4.03125 -14.347656 4.28125 -13.6875 4.78125 -13.1875 C 5.28125 -12.6875 5.90625 -12.300781 6.65625 -12.03125 C 7.414062 -11.769531 8.429688 -11.484375 9.703125 -11.171875 C 11.210938 -10.796875 12.429688 -10.425781 13.359375 -10.0625 C 14.296875 -9.707031 15.085938 -9.160156 15.734375 -8.421875 C 16.378906 -7.691406 16.703125 -6.695312 16.703125 -5.4375 C 16.703125 -4.394531 16.421875 -3.445312 15.859375 -2.59375 C 15.304688 -1.75 14.453125 -1.078125 13.296875 -0.578125 C 12.140625 -0.078125 10.71875 0.171875 9.03125 0.171875 Z M 9.03125 0.171875 "/></g></g></g><g fill="#2d2928" fill-opacity="1"><g transform="translate(228.099323, 209.008153)"><g><path d="M 12.34375 0.171875 C 10.3125 0.171875 8.46875 -0.28125 6.8125 -1.1875 C 5.15625 -2.101562 3.859375 -3.351562 2.921875 -4.9375 C 1.992188 -6.53125 1.53125 -8.316406 1.53125 -10.296875 C 1.53125 -12.273438 1.992188 -14.054688 2.921875 -15.640625 C 3.859375 -17.234375 5.15625 -18.484375 6.8125 -19.390625 C 8.46875 -20.304688 10.3125 -20.765625 12.34375 -20.765625 C 14.382812 -20.765625 16.222656 -20.3125 17.859375 -19.40625 C 19.492188 -18.507812 20.78125 -17.257812 21.71875 -15.65625 C 22.664062 -14.0625 23.140625 -12.273438 23.140625 -10.296875 C 23.140625 -8.316406 22.664062 -6.523438 21.71875 -4.921875 C 20.78125 -3.328125 19.492188 -2.078125 17.859375 -1.171875 C 16.222656 -0.273438 14.382812 0.171875 12.34375 0.171875 Z M 12.34375 -1.765625 C 13.976562 -1.765625 15.453125 -2.128906 16.765625 -2.859375 C 18.078125 -3.597656 19.101562 -4.617188 19.84375 -5.921875 C 20.59375 -7.222656 20.96875 -8.679688 20.96875 -10.296875 C 20.96875 -11.898438 20.59375 -13.351562 19.84375 -14.65625 C 19.101562 -15.957031 18.078125 -16.972656 16.765625 -17.703125 C 15.453125 -18.441406 13.976562 -18.8125 12.34375 -18.8125 C 10.71875 -18.8125 9.242188 -18.441406 7.921875 -17.703125 C 6.597656 -16.972656 5.554688 -15.957031 4.796875 -14.65625 C 4.046875 -13.351562 3.671875 -11.898438 3.671875 -10.296875 C 3.671875 -8.679688 4.046875 -7.222656 4.796875 -5.921875 C 5.554688 -4.617188 6.597656 -3.597656 7.921875 -2.859375 C 9.242188 -2.128906 10.71875 -1.765625 12.34375 -1.765625 Z M 12.34375 -1.765625 "/></g></g></g><g fill="#2d2928" fill-opacity="1"><g transform="translate(262.141029, 209.008153)"><g><path d="M 3.359375 -20.578125 L 5.53125 -20.578125 L 5.53125 -1.875 L 17.0625 -1.875 L 17.0625 0 L 3.359375 0 Z M 3.359375 -20.578125 "/></g></g></g><g fill="#2d2928" fill-opacity="1"><g transform="translate(288.834814, 209.008153)"><g><path d="M 20.46875 -20.578125 L 11.34375 0 L 9.203125 0 L 0.09375 -20.578125 L 2.4375 -20.578125 L 10.328125 -2.703125 L 18.265625 -20.578125 Z M 20.46875 -20.578125 "/></g></g></g><g fill="#2d2928" fill-opacity="1"><g transform="translate(318.732307, 209.008153)"><g><path d="M 17.90625 -1.875 L 17.90625 0 L 3.359375 0 L 3.359375 -20.578125 L 17.46875 -20.578125 L 17.46875 -18.703125 L 5.53125 -18.703125 L 5.53125 -11.375 L 16.171875 -11.375 L 16.171875 -9.53125 L 5.53125 -9.53125 L 5.53125 -1.875 Z M 17.90625 -1.875 "/></g></g></g><g fill="#2d2928" fill-opacity="1"><g transform="translate(347.77742, 209.008153)"><g><path d="M 9.03125 0.171875 C 7.5 0.171875 6.03125 -0.0703125 4.625 -0.5625 C 3.226562 -1.050781 2.144531 -1.695312 1.375 -2.5 L 2.234375 -4.171875 C 2.984375 -3.429688 3.972656 -2.828125 5.203125 -2.359375 C 6.441406 -1.898438 7.71875 -1.671875 9.03125 -1.671875 C 10.875 -1.671875 12.253906 -2.007812 13.171875 -2.6875 C 14.097656 -3.363281 14.5625 -4.242188 14.5625 -5.328125 C 14.5625 -6.148438 14.3125 -6.804688 13.8125 -7.296875 C 13.3125 -7.785156 12.695312 -8.160156 11.96875 -8.421875 C 11.238281 -8.691406 10.226562 -8.984375 8.9375 -9.296875 C 7.382812 -9.679688 6.148438 -10.054688 5.234375 -10.421875 C 4.316406 -10.785156 3.523438 -11.335938 2.859375 -12.078125 C 2.203125 -12.828125 1.875 -13.835938 1.875 -15.109375 C 1.875 -16.148438 2.148438 -17.097656 2.703125 -17.953125 C 3.253906 -18.804688 4.097656 -19.488281 5.234375 -20 C 6.367188 -20.507812 7.78125 -20.765625 9.46875 -20.765625 C 10.644531 -20.765625 11.796875 -20.601562 12.921875 -20.28125 C 14.046875 -19.957031 15.019531 -19.507812 15.84375 -18.9375 L 15.109375 -17.203125 C 14.253906 -17.773438 13.332031 -18.203125 12.34375 -18.484375 C 11.363281 -18.765625 10.40625 -18.90625 9.46875 -18.90625 C 7.664062 -18.90625 6.304688 -18.554688 5.390625 -17.859375 C 4.484375 -17.171875 4.03125 -16.273438 4.03125 -15.171875 C 4.03125 -14.347656 4.28125 -13.6875 4.78125 -13.1875 C 5.28125 -12.6875 5.90625 -12.300781 6.65625 -12.03125 C 7.414062 -11.769531 8.429688 -11.484375 9.703125 -11.171875 C 11.210938 -10.796875 12.429688 -10.425781 13.359375 -10.0625 C 14.296875 -9.707031 15.085938 -9.160156 15.734375 -8.421875 C 16.378906 -7.691406 16.703125 -6.695312 16.703125 -5.4375 C 16.703125 -4.394531 16.421875 -3.445312 15.859375 -2.59375 C 15.304688 -1.75 14.453125 -1.078125 13.296875 -0.578125 C 12.140625 -0.078125 10.71875 0.171875 9.03125 0.171875 Z M 9.03125 0.171875 "/></g></g></g></svg>